# anatomical structure: integer-coordinate triangle mesh
v 3 8 3
v 3 9 3
v 3 9 4
v 3 8 4
v 6 0 0
v 7 0 0
v 7 0 1
v 6 0 1
v 6 1 0
v 7 1 0
v 4 0 1
v 5 0 1
v 5 0 2
v 4 0 2
v 8 0 2
v 9 0 2
v 9 0 3
v 8 0 3
v 0 3 3
v 0 3 4
v 0 4 4
v 0 4 3
v 1 0 1
v 2 0 1
v 2 0 2
v 1 0 2
v 1 12 1
v 1 12 2
v 2 12 2
v 2 12 1
v 3 4 5
v 3 5 5
v 3 5 6
v 3 4 6
v 2 4 6
v 2 5 6
v 3 0 3
v 4 0 3
v 4 0 4
v 3 0 4
v 3 12 3
v 3 12 4
v 4 12 4
v 4 12 3
v 0 7 0
v 0 7 1
v 0 8 1
v 0 8 0
v 1 8 0
v 1 7 0
v 10 10 0
v 10 11 0
v 11 11 0
v 11 10 0
v 0 6 4
v 0 6 5
v 0 7 5
v 0 7 4
v 5 9 0
v 6 9 0
v 6 9 1
v 5 9 1
v 5 10 0
v 6 10 0
v 10 2 6
v 11 2 6
v 11 3 6
v 10 3 6
v 7 9 2
v 8 9 2
v 8 9 3
v 7 9 3
v 6 12 5
v 6 12 6
v 7 12 6
v 7 12 5
v 6 11 6
v 7 11 6
v 0 10 1
v 0 10 2
v 0 11 2
v 0 11 1
v 12 6 5
v 12 7 5
v 12 7 6
v 12 6 6
v 11 6 6
v 11 7 6
v 9 1 6
v 10 1 6
v 9 2 6
v 2 0 3
v 2 0 4
v 2 12 3
v 2 12 4
v 0 11 3
v 0 12 3
v 0 12 2
v 1 12 3
v 4 0 5
v 5 0 5
v 5 0 6
v 4 0 6
v 5 1 6
v 4 1 6
v 6 0 4
v 7 0 4
v 7 0 5
v 6 0 5
v 12 10 2
v 12 11 2
v 12 11 3
v 12 10 3
v 9 5 2
v 9 5 3
v 9 6 3
v 9 6 2
v 13 6 3
v 13 6 4
v 14 6 4
v 14 6 3
v 3 4 0
v 3 5 0
v 3 5 1
v 3 4 1
v 2 4 0
v 2 5 0
v 15 3 4
v 15 4 4
v 15 4 5
v 15 3 5
v 14 3 5
v 14 4 5
v 9 8 3
v 9 8 4
v 9 9 4
v 9 9 3
v 5 0 4
v 5 12 4
v 5 12 5
v 6 12 4
v 3 7 1
v 3 8 1
v 3 8 2
v 3 7 2
v 6 12 0
v 6 12 1
v 7 12 1
v 7 12 0
v 6 11 0
v 7 11 0
v 8 12 2
v 8 12 3
v 9 12 3
v 9 12 2
v 12 6 0
v 12 7 0
v 12 7 1
v 12 6 1
v 11 6 0
v 11 7 0
v 0 10 5
v 0 10 6
v 0 11 6
v 0 11 5
v 1 10 6
v 1 11 6
v 0 2 1
v 0 2 2
v 0 3 2
v 0 3 1
v 12 9 5
v 12 10 5
v 12 10 6
v 12 9 6
v 11 9 6
v 11 10 6
v 12 6 3
v 12 6 4
v 6 1 6
v 6 2 6
v 5 2 6
v 9 1 0
v 9 2 0
v 10 2 0
v 10 1 0
v 3 9 2
v 4 0 0
v 5 0 0
v 4 1 0
v 5 1 0
v 8 0 1
v 9 0 1
v 2 10 6
v 2 11 6
v 3 3 3
v 3 3 4
v 4 3 4
v 4 3 3
v 0 9 0
v 0 9 1
v 0 10 0
v 1 10 0
v 1 9 0
v 4 12 5
v 4 12 6
v 5 12 6
v 4 11 6
v 5 11 6
v 0 6 3
v 0 7 3
v 7 0 2
v 7 12 2
v 8 12 1
v 10 0 3
v 10 0 4
v 9 0 4
v 3 7 5
v 3 8 5
v 3 8 6
v 3 7 6
v 2 7 6
v 2 8 6
v 7 12 4
v 0 11 0
v 1 11 0
v 12 7 4
v 15 2 3
v 15 3 3
v 15 2 4
v 14 2 3
v 14 2 4
v 12 9 0
v 12 10 0
v 12 10 1
v 12 9 1
v 11 9 0
v 0 2 5
v 0 2 6
v 0 3 6
v 0 3 5
v 1 2 6
v 1 3 6
v 5 2 0
v 6 2 0
v 10 5 6
v 11 5 6
v 10 6 6
v 3 0 2
v 3 12 2
v 12 11 1
v 2 11 0
v 2 10 0
v 2 2 6
v 2 3 6
v 0 9 4
v 0 9 5
v 0 10 4
v 10 0 2
v 11 0 2
v 11 0 3
v 4 12 0
v 4 12 1
v 5 12 1
v 5 12 0
v 4 11 0
v 5 11 0
v 9 4 5
v 9 4 6
v 9 5 6
v 9 5 5
v 10 4 6
v 9 7 1
v 9 7 2
v 9 8 2
v 9 8 1
v 3 4 3
v 3 4 4
v 9 9 2
v 12 4 1
v 12 5 1
v 13 5 1
v 13 4 1
v 5 0 3
v 6 0 3
v 5 12 3
v 6 12 3
v 3 7 0
v 3 8 0
v 2 7 0
v 2 8 0
v 8 0 5
v 8 0 6
v 7 0 6
v 8 1 6
v 7 1 6
v 8 12 6
v 8 12 5
v 8 11 6
v 9 12 1
v 0 2 0
v 0 3 0
v 1 3 0
v 1 2 0
v 10 5 0
v 10 6 0
v 11 5 0
v 8 10 6
v 9 10 6
v 9 11 6
v 12 9 4
v 12 10 4
v 12 6 2
v 13 6 2
v 3 9 5
v 4 9 5
v 4 9 6
v 3 9 6
v 4 10 6
v 3 10 6
v 0 5 2
v 0 5 3
v 0 6 2
v 9 12 4
v 10 12 4
v 10 12 3
v 2 3 0
v 2 2 0
v 3 3 2
v 4 3 2
v 12 1 5
v 12 2 5
v 12 2 6
v 12 1 6
v 11 1 6
v 9 4 0
v 9 4 1
v 9 5 1
v 9 5 0
v 10 4 0
v 9 7 5
v 9 7 6
v 9 8 6
v 9 8 5
v 10 7 6
v 10 8 6
v 0 7 2
v 8 0 0
v 8 1 0
v 8 12 0
v 8 11 0
v 3 7 4
v 12 7 3
v 15 2 2
v 15 3 2
v 14 2 2
v 8 10 0
v 9 11 0
v 9 10 0
v 6 3 3
v 6 3 4
v 7 3 4
v 7 3 3
v 3 9 0
v 4 9 0
v 4 9 1
v 3 9 1
v 3 10 0
v 4 10 0
v 8 3 5
v 8 3 6
v 9 3 6
v 9 3 5
v 8 2 6
v 10 12 2
v 11 12 3
v 11 12 2
v 9 3 3
v 9 3 4
v 9 4 4
v 9 4 3
v 3 11 6
v 5 3 4
v 5 3 3
v 15 5 3
v 15 6 3
v 15 6 4
v 15 5 4
v 12 1 0
v 12 2 0
v 12 2 1
v 12 1 1
v 11 1 0
v 11 2 0
v 11 8 6
v 10 9 6
v 0 9 3
v 0 10 3
v 10 0 1
v 11 0 1
v 12 4 5
v 12 5 5
v 12 5 6
v 12 4 6
v 11 4 6
v 9 5 4
v 9 7 0
v 9 8 0
v 10 8 0
v 10 7 0
v 3 4 2
v 7 9 1
v 6 9 2
v 1 5 6
v 2 6 6
v 1 6 6
v 0 1 4
v 0 1 5
v 0 2 4
v 11 8 0
v 3 6 3
v 3 7 3
v 3 6 4
v 8 3 0
v 8 3 1
v 9 3 1
v 9 3 0
v 8 2 0
v 4 9 4
v 0 5 1
v 0 6 1
v 12 0 3
v 12 1 3
v 12 1 4
v 12 0 4
v 11 0 4
v 3 11 0
v 3 2 6
v 3 3 6
v 3 3 1
v 4 3 1
v 10 9 0
v 12 2 4
v 12 4 0
v 12 5 0
v 11 4 0
v 3 1 6
v 4 2 6
v 10 0 5
v 11 0 5
v 11 0 6
v 10 0 6
v 0 8 2
v 0 8 3
v 0 9 2
v 9 7 4
v 1 5 0
v 1 6 0
v 2 6 0
v 6 9 5
v 7 9 5
v 7 9 6
v 6 9 6
v 7 10 6
v 6 10 6
v 13 2 3
v 13 2 4
v 13 3 5
v 13 4 5
v 6 3 2
v 7 3 2
v 8 3 4
v 12 8 2
v 12 9 2
v 12 9 3
v 12 8 3
v 15 4 1
v 15 5 1
v 15 5 2
v 15 4 2
v 14 4 1
v 14 5 1
v 0 5 5
v 0 5 6
v 0 6 6
v 10 12 1
v 11 12 1
v 9 3 2
v 9 4 2
v 3 3 0
v 3 2 0
v 5 3 2
v 15 6 2
v 14 6 2
v 3 1 0
v 4 2 0
v 10 0 0
v 11 0 0
v 0 0 2
v 0 0 3
v 0 1 3
v 0 1 2
v 1 0 3
v 12 3 5
v 7 9 0
v 7 10 0
v 7 3 5
v 5 9 2
v 4 9 2
v 7 2 6
v 0 2 3
v 12 8 5
v 12 8 6
v 3 6 2
v 5 3 1
v 6 3 1
v 4 9 3
v 12 0 2
v 12 1 2
v 1 8 6
v 2 9 6
v 1 9 6
v 0 4 5
v 0 5 4
v 12 2 3
v 10 10 6
v 10 11 6
v 6 9 4
v 7 9 4
v 13 2 2
v 5 9 5
v 5 9 6
v 5 10 6
v 7 2 0
v 12 8 0
v 12 8 1
v 5 3 5
v 5 3 6
v 6 3 6
v 6 3 5
v 2 9 0
v 1 0 5
v 2 0 5
v 2 0 6
v 1 0 6
v 2 1 6
v 1 1 6
v 1 12 5
v 1 12 6
v 2 12 6
v 2 12 5
v 0 8 5
v 0 8 4
v 10 3 0
v 11 3 0
v 9 6 4
v 9 7 3
v 5 9 4
v 12 2 2
v 3 6 1
v 3 5 2
v 12 12 2
v 12 12 3
v 0 8 6
v 0 9 6
v 0 0 1
v 0 1 1
v 8 3 3
v 8 9 1
v 9 9 1
v 12 8 4
v 5 3 0
v 6 3 0
v 0 4 2
v 15 5 5
v 14 5 5
v 12 0 1
v 1 0 0
v 2 0 0
v 1 1 0
v 2 1 0
v 1 12 0
v 2 12 0
v 3 5 4
v 4 12 2
v 3 6 5
v 3 6 6
v 0 0 5
v 0 0 6
v 0 1 6
v 13 2 1
v 14 2 1
v 13 3 1
v 14 3 1
v 7 0 3
v 0 12 1
v 9 0 5
v 9 0 6
v 9 6 1
v 15 4 3
v 1 0 4
v 1 12 4
v 12 3 6
v 5 9 3
v 6 9 3
v 12 3 1
v 3 6 0
v 8 9 5
v 8 9 6
v 12 12 1
v 1 4 6
v 0 11 4
v 9 0 0
v 0 12 6
v 0 12 5
v 0 4 1
v 12 11 5
v 12 11 6
v 11 11 6
v 9 6 6
v 9 6 5
v 3 5 3
v 3 0 1
v 3 12 1
v 12 3 0
v 8 9 0
v 12 12 5
v 12 12 6
v 11 12 5
v 11 12 6
v 1 4 0
v 7 12 3
v 9 12 6
v 9 12 5
v 0 12 0
v 6 0 2
v 8 0 4
v 12 11 0
v 0 4 6
v 9 6 0
v 13 6 1
v 14 6 1
v 5 12 2
v 6 12 2
v 8 12 4
v 9 12 0
v 3 0 5
v 3 0 6
v 3 12 6
v 3 12 5
v 0 4 0
v 12 11 4
v 1 7 6
v 9 9 6
v 9 9 5
v 13 5 5
v 12 7 2
v 15 2 1
v 15 3 1
v 3 0 0
v 3 12 0
v 3 3 5
v 4 3 6
v 4 3 5
v 0 7 6
v 9 9 0
v 0 5 0
v 0 6 0
v 10 12 5
v 10 12 6
v 4 3 0
v 6 0 6
v 7 3 1
v 10 12 0
v 11 12 0
v 15 6 1
v 15 2 5
v 14 2 5
v 7 3 6
v 11 12 4
v 7 3 0
v 8 3 2
v 12 0 5
v 12 0 6
v 0 0 0
v 0 1 0
v 12 0 0
v 15 6 5
v 14 6 5
v 0 0 4
v 8 9 4
v 12 12 0
v 13 2 5
v 0 12 4
v 12 12 4
v 13 6 5
f 1 2 3
f 1 3 4
f 5 6 7
f 5 7 8
f 5 9 10
f 5 10 6
f 11 12 13
f 11 13 14
f 15 16 17
f 15 17 18
f 19 20 21
f 19 21 22
f 23 24 25
f 23 25 26
f 27 28 29
f 27 29 30
f 31 32 33
f 31 33 34
f 35 34 33
f 35 33 36
f 37 38 39
f 37 39 40
f 41 42 43
f 41 43 44
f 45 46 47
f 45 47 48
f 45 48 49
f 45 49 50
f 51 52 53
f 51 53 54
f 55 56 57
f 55 57 58
f 59 60 61
f 59 61 62
f 59 63 64
f 59 64 60
f 65 66 67
f 65 67 68
f 69 70 71
f 69 71 72
f 73 74 75
f 73 75 76
f 77 78 75
f 77 75 74
f 79 80 81
f 79 81 82
f 83 84 85
f 83 85 86
f 87 86 85
f 87 85 88
f 89 90 65
f 89 65 91
f 92 37 40
f 92 40 93
f 94 95 42
f 94 42 41
f 81 96 97
f 81 97 98
f 98 97 99
f 98 99 28
f 100 101 102
f 100 102 103
f 103 102 104
f 103 104 105
f 106 107 108
f 106 108 109
f 110 111 112
f 110 112 113
f 114 115 116
f 114 116 117
f 118 119 120
f 118 120 121
f 122 123 124
f 122 124 125
f 126 127 123
f 126 123 122
f 128 129 130
f 128 130 131
f 132 131 130
f 132 130 133
f 134 135 136
f 134 136 137
f 138 106 109
f 138 109 101
f 139 140 73
f 139 73 141
f 142 143 144
f 142 144 145
f 146 147 148
f 146 148 149
f 150 146 149
f 150 149 151
f 152 153 154
f 152 154 155
f 156 157 158
f 156 158 159
f 160 161 157
f 160 157 156
f 162 163 164
f 162 164 165
f 163 166 167
f 163 167 164
f 168 169 170
f 168 170 171
f 172 173 174
f 172 174 175
f 176 175 174
f 176 174 177
f 178 179 119
f 178 119 118
f 104 180 181
f 104 181 182
f 183 184 185
f 183 185 186
f 144 187 2
f 144 2 1
f 188 189 12
f 188 12 11
f 188 190 191
f 188 191 189
f 192 193 16
f 192 16 15
f 166 194 195
f 166 195 167
f 196 197 198
f 196 198 199
f 200 201 79
f 200 79 202
f 200 202 203
f 200 203 204
f 205 206 207
f 205 207 140
f 208 209 207
f 208 207 206
f 210 55 58
f 210 58 211
f 7 192 15
f 7 15 212
f 148 213 152
f 148 152 214
f 17 215 216
f 17 216 217
f 218 219 220
f 218 220 221
f 222 221 220
f 222 220 223
f 141 73 76
f 141 76 224
f 202 79 82
f 202 82 225
f 202 225 226
f 202 226 203
f 179 227 84
f 179 84 83
f 228 229 128
f 228 128 230
f 231 228 230
f 231 230 232
f 233 234 235
f 233 235 236
f 237 54 234
f 237 234 233
f 238 239 240
f 238 240 241
f 239 242 243
f 239 243 240
f 191 244 245
f 191 245 9
f 246 247 87
f 246 87 248
f 25 249 37
f 25 37 92
f 29 94 41
f 29 41 250
f 39 138 101
f 39 101 100
f 235 251 111
f 235 111 110
f 203 226 252
f 203 252 253
f 242 254 255
f 242 255 243
f 256 257 162
f 256 162 258
f 259 260 261
f 259 261 215
f 262 263 264
f 262 264 265
f 266 262 265
f 266 265 267
f 268 269 270
f 268 270 271
f 269 272 246
f 269 246 270
f 273 274 275
f 273 275 276
f 196 277 278
f 196 278 197
f 275 134 137
f 275 137 279
f 280 281 282
f 280 282 283
f 284 285 106
f 284 106 138
f 286 139 141
f 286 141 287
f 288 289 143
f 288 143 142
f 290 291 289
f 290 289 288
f 108 292 293
f 108 293 294
f 294 293 295
f 294 295 296
f 76 75 297
f 76 297 298
f 78 299 297
f 78 297 75
f 214 152 155
f 214 155 300
f 301 168 171
f 301 171 302
f 301 302 303
f 301 303 304
f 305 306 160
f 305 160 307
f 308 309 310
f 308 310 299
f 311 312 173
f 311 173 172
f 313 178 118
f 313 118 314
f 315 316 317
f 315 317 318
f 318 317 319
f 318 319 320
f 321 322 210
f 321 210 323
f 154 324 325
f 154 325 326
f 304 303 327
f 304 327 328
f 329 196 199
f 329 199 330
f 331 332 333
f 331 333 334
f 335 334 333
f 335 333 66
f 336 337 338
f 336 338 339
f 336 339 305
f 336 305 340
f 43 205 140
f 43 140 139
f 341 342 343
f 341 343 344
f 342 345 346
f 342 346 343
f 323 210 211
f 323 211 347
f 6 348 192
f 6 192 7
f 6 10 349
f 6 349 348
f 149 148 214
f 149 214 350
f 151 149 350
f 151 350 351
f 16 259 215
f 16 215 17
f 352 4 219
f 352 219 218
f 178 353 227
f 178 227 179
f 354 355 229
f 354 229 228
f 356 354 228
f 356 228 231
f 357 351 358
f 357 358 359
f 360 361 362
f 360 362 363
f 364 365 366
f 364 366 367
f 364 368 369
f 364 369 365
f 370 371 372
f 370 372 373
f 374 91 372
f 374 372 371
f 375 326 376
f 375 376 377
f 378 379 380
f 378 380 381
f 194 320 382
f 194 382 195
f 199 198 383
f 199 383 384
f 385 386 387
f 385 387 388
f 121 120 387
f 121 387 386
f 389 390 391
f 389 391 392
f 393 394 390
f 393 390 389
f 346 395 176
f 346 176 396
f 397 256 258
f 397 258 398
f 399 400 260
f 399 260 259
f 401 402 403
f 401 403 404
f 405 404 403
f 405 403 247
f 380 268 271
f 380 271 406
f 407 273 276
f 407 276 408
f 407 408 409
f 407 409 410
f 329 411 277
f 329 277 196
f 61 412 69
f 61 69 413
f 414 36 415
f 414 415 416
f 417 418 238
f 417 238 419
f 410 409 420
f 410 420 161
f 421 422 352
f 421 352 423
f 424 425 426
f 424 426 427
f 428 424 427
f 428 427 184
f 3 429 316
f 3 316 315
f 430 321 323
f 430 323 431
f 432 433 434
f 432 434 435
f 261 432 435
f 261 435 436
f 155 154 326
f 155 326 375
f 253 252 437
f 253 437 368
f 254 438 439
f 254 439 255
f 440 329 330
f 440 330 441
f 409 442 237
f 409 237 420
f 434 443 332
f 434 332 331
f 444 445 281
f 444 281 280
f 446 307 445
f 446 445 444
f 447 105 448
f 447 448 438
f 449 450 451
f 449 451 452
f 452 451 335
f 452 335 90
f 453 454 397
f 453 397 455
f 456 341 344
f 456 344 135
f 457 458 459
f 457 459 127
f 460 461 462
f 460 462 463
f 463 462 464
f 463 464 465
f 466 231 232
f 466 232 467
f 468 132 133
f 468 133 469
f 470 360 363
f 470 363 471
f 472 370 373
f 472 373 379
f 473 474 475
f 473 475 476
f 477 478 479
f 477 479 480
f 481 482 478
f 481 478 477
f 483 484 485
f 483 485 56
f 484 414 416
f 484 416 485
f 486 375 377
f 486 377 487
f 488 378 381
f 488 381 489
f 328 327 490
f 328 490 491
f 330 199 384
f 330 384 492
f 479 493 386
f 479 386 385
f 494 121 386
f 494 386 493
f 495 491 496
f 495 496 190
f 497 498 400
f 497 400 399
f 497 186 393
f 497 393 498
f 499 500 501
f 499 501 502
f 499 26 503
f 499 503 500
f 504 468 469
f 504 469 401
f 60 505 412
f 60 412 61
f 60 64 506
f 60 506 505
f 362 507 370
f 362 370 472
f 366 62 508
f 366 508 509
f 70 279 137
f 70 137 71
f 180 296 510
f 180 510 181
f 501 417 419
f 501 419 511
f 84 512 513
f 84 513 85
f 88 85 513
f 88 513 395
f 514 145 422
f 514 422 421
f 515 492 470
f 515 470 516
f 2 517 429
f 2 429 3
f 518 519 433
f 518 433 432
f 260 518 432
f 260 432 261
f 520 223 521
f 520 521 522
f 300 155 375
f 300 375 486
f 21 523 483
f 21 483 524
f 433 525 443
f 433 443 434
f 47 453 455
f 47 455 201
f 309 526 527
f 309 527 310
f 528 529 461
f 528 461 460
f 530 356 231
f 530 231 466
f 316 531 532
f 316 532 317
f 317 532 533
f 317 533 319
f 9 245 534
f 9 534 10
f 157 535 536
f 157 536 158
f 161 420 535
f 161 535 157
f 68 67 405
f 68 405 272
f 537 538 539
f 537 539 540
f 182 181 539
f 182 539 538
f 536 236 474
f 536 474 473
f 49 204 541
f 49 541 291
f 542 543 544
f 542 544 545
f 545 544 546
f 545 546 547
f 548 549 550
f 548 550 551
f 167 195 550
f 167 550 549
f 426 488 489
f 426 489 337
f 58 57 552
f 58 552 553
f 185 554 555
f 185 555 394
f 116 556 456
f 116 456 557
f 558 528 460
f 558 460 531
f 559 530 466
f 559 466 525
f 124 560 514
f 124 514 561
f 111 562 563
f 111 563 112
f 377 376 563
f 377 563 562
f 552 564 565
f 552 565 257
f 564 520 522
f 564 522 565
f 566 499 502
f 566 502 567
f 566 23 26
f 566 26 499
f 533 465 77
f 533 77 209
f 359 358 52
f 359 52 51
f 363 362 472
f 363 472 568
f 365 59 62
f 365 62 366
f 365 369 63
f 365 63 59
f 569 570 279
f 569 279 70
f 91 65 68
f 91 68 372
f 554 340 446
f 554 446 555
f 227 571 512
f 227 512 84
f 572 515 516
f 572 516 573
f 244 572 573
f 244 573 245
f 170 19 22
f 170 22 574
f 129 388 575
f 129 575 130
f 133 130 575
f 133 575 576
f 577 392 519
f 577 519 518
f 400 577 518
f 400 518 260
f 578 579 24
f 578 24 23
f 578 580 581
f 578 581 579
f 582 27 30
f 582 30 583
f 226 582 583
f 226 583 252
f 22 21 524
f 22 524 322
f 278 584 32
f 278 32 31
f 249 14 38
f 249 38 37
f 250 41 44
f 250 44 585
f 412 569 70
f 412 70 69
f 32 586 587
f 32 587 33
f 36 33 587
f 36 587 415
f 48 47 201
f 48 201 200
f 48 200 204
f 48 204 49
f 588 589 590
f 588 590 418
f 588 542 545
f 588 545 589
f 589 545 547
f 589 547 590
f 63 267 150
f 63 150 64
f 184 427 554
f 184 554 185
f 591 592 356
f 591 356 530
f 591 593 594
f 591 594 592
f 429 558 531
f 429 531 316
f 285 595 107
f 285 107 106
f 82 81 98
f 82 98 596
f 596 98 28
f 596 28 27
f 292 597 598
f 292 598 293
f 293 598 89
f 293 89 295
f 338 114 117
f 338 117 599
f 314 118 121
f 314 121 494
f 105 104 182
f 105 182 448
f 229 600 129
f 229 129 128
f 601 93 543
f 601 543 542
f 602 548 551
f 602 551 95
f 211 58 553
f 211 553 454
f 332 504 603
f 332 603 333
f 66 333 603
f 66 603 67
f 117 116 557
f 117 557 274
f 604 605 528
f 604 528 558
f 391 591 530
f 391 530 559
f 391 606 593
f 391 593 591
f 123 607 560
f 123 560 124
f 127 459 607
f 127 607 123
f 461 608 609
f 461 609 462
f 462 609 308
f 462 308 464
f 251 610 562
f 251 562 111
f 487 377 562
f 487 562 610
f 243 255 35
f 243 35 611
f 258 162 165
f 258 165 612
f 143 367 187
f 143 187 144
f 353 476 571
f 353 571 227
f 348 613 193
f 348 193 192
f 348 349 183
f 348 183 613
f 165 164 614
f 165 614 615
f 615 614 549
f 615 549 548
f 164 167 549
f 164 549 614
f 171 170 574
f 171 574 616
f 173 617 618
f 173 618 174
f 177 174 618
f 177 618 619
f 190 496 244
f 190 244 191
f 271 270 620
f 271 620 621
f 270 246 248
f 270 248 620
f 277 622 584
f 277 584 278
f 574 22 322
f 574 322 321
f 623 11 14
f 623 14 249
f 624 250 585
f 624 585 263
f 390 625 606
f 390 606 391
f 394 555 625
f 394 625 390
f 505 626 569
f 505 569 412
f 505 506 357
f 505 357 626
f 617 627 628
f 617 628 618
f 629 630 628
f 629 628 627
f 619 618 628
f 619 628 630
f 303 631 126
f 303 126 327
f 283 282 482
f 283 482 481
f 287 141 224
f 287 224 632
f 298 297 633
f 298 633 634
f 299 310 633
f 299 633 297
f 419 238 241
f 419 241 20
f 219 315 318
f 219 318 220
f 223 220 318
f 223 318 521
f 24 623 249
f 24 249 25
f 30 29 250
f 30 250 624
f 225 82 596
f 225 596 635
f 635 596 27
f 635 27 582
f 225 635 582
f 225 582 226
f 38 284 138
f 38 138 39
f 636 212 595
f 636 595 285
f 637 217 597
f 637 597 292
f 234 638 251
f 234 251 235
f 54 53 638
f 54 638 234
f 241 240 639
f 241 639 523
f 240 243 611
f 240 611 639
f 339 338 599
f 339 599 640
f 339 640 306
f 339 306 305
f 641 314 494
f 641 494 642
f 282 641 642
f 282 642 482
f 355 480 600
f 355 600 229
f 276 275 279
f 276 279 570
f 13 636 285
f 13 285 284
f 643 286 287
f 643 287 644
f 107 637 292
f 107 292 108
f 224 76 298
f 224 298 645
f 350 214 300
f 350 300 646
f 351 350 646
f 351 646 358
f 398 258 612
f 398 612 96
f 475 113 312
f 475 312 311
f 159 313 314
f 159 314 641
f 281 159 641
f 281 641 282
f 289 364 367
f 289 367 143
f 291 541 364
f 291 364 289
f 296 295 374
f 296 374 510
f 543 647 648
f 543 648 544
f 544 648 447
f 544 447 546
f 551 550 649
f 551 649 650
f 195 382 649
f 195 649 550
f 302 171 616
f 302 616 651
f 302 651 631
f 302 631 303
f 312 652 617
f 312 617 173
f 320 319 208
f 320 208 382
f 396 176 177
f 396 177 526
f 406 271 621
f 406 621 556
f 411 561 622
f 411 622 277
f 44 43 139
f 44 139 286
f 431 323 347
f 431 347 46
f 416 415 222
f 416 222 653
f 344 343 654
f 344 654 655
f 343 346 396
f 343 396 654
f 401 469 656
f 401 656 402
f 193 399 259
f 193 259 16
f 422 1 4
f 422 4 352
f 644 287 632
f 644 632 213
f 645 298 634
f 645 634 324
f 313 657 353
f 313 353 178
f 658 659 355
f 658 355 354
f 592 658 354
f 592 354 356
f 592 594 659
f 592 659 658
f 511 419 20
f 511 20 19
f 10 534 428
f 10 428 349
f 4 3 315
f 4 315 219
f 579 660 623
f 579 623 24
f 579 581 495
f 579 495 660
f 583 30 624
f 583 624 661
f 252 583 661
f 252 661 437
f 8 7 212
f 8 212 636
f 14 13 284
f 14 284 38
f 18 17 217
f 18 217 637
f 368 437 266
f 368 266 369
f 442 51 54
f 442 54 237
f 662 439 663
f 662 663 664
f 438 448 663
f 438 663 439
f 455 397 398
f 455 398 80
f 659 477 480
f 659 480 355
f 594 481 477
f 594 477 659
f 381 380 406
f 381 406 115
f 440 125 411
f 440 411 329
f 56 485 665
f 56 665 57
f 485 416 653
f 485 653 665
f 458 50 290
f 458 290 459
f 402 83 86
f 402 86 403
f 247 403 86
f 247 86 87
f 408 276 570
f 408 570 666
f 408 666 442
f 408 442 409
f 12 8 636
f 12 636 13
f 264 643 644
f 264 644 147
f 595 18 637
f 595 637 107
f 632 224 645
f 632 645 153
f 597 449 452
f 597 452 598
f 598 452 90
f 598 90 89
f 469 133 576
f 469 576 656
f 80 398 96
f 80 96 81
f 474 110 113
f 474 113 475
f 667 430 431
f 667 431 668
f 667 668 458
f 667 458 457
f 95 551 650
f 95 650 42
f 669 670 630
f 669 630 629
f 527 619 630
f 527 630 670
f 490 440 441
f 490 441 671
f 491 490 671
f 491 671 496
f 216 436 450
f 216 450 449
f 585 44 286
f 585 286 643
f 557 456 135
f 557 135 134
f 662 31 34
f 662 34 439
f 255 439 34
f 255 34 35
f 668 431 46
f 668 46 45
f 668 45 50
f 668 50 458
f 445 156 159
f 445 159 281
f 307 160 156
f 307 156 445
f 90 335 66
f 90 66 65
f 135 344 655
f 135 655 136
f 101 109 672
f 101 672 102
f 102 672 180
f 102 180 104
f 140 207 74
f 140 74 73
f 209 77 74
f 209 74 207
f 145 144 1
f 145 1 422
f 613 497 399
f 613 399 193
f 613 183 186
f 613 186 497
f 159 158 657
f 159 657 313
f 465 464 78
f 465 78 77
f 516 470 471
f 516 471 673
f 568 472 379
f 568 379 378
f 522 521 194
f 522 194 166
f 524 483 56
f 524 56 55
f 634 633 670
f 634 670 669
f 310 527 670
f 310 670 633
f 674 486 487
f 674 487 675
f 52 674 675
f 52 675 53
f 319 533 209
f 319 209 208
f 441 330 492
f 441 492 515
f 478 676 493
f 478 493 479
f 642 494 493
f 642 493 676
f 482 642 676
f 482 676 478
f 197 662 664
f 197 664 198
f 201 455 80
f 201 80 79
f 489 381 115
f 489 115 114
f 490 122 125
f 490 125 440
f 327 126 122
f 327 122 490
f 186 185 394
f 186 394 393
f 189 5 8
f 189 8 12
f 189 191 9
f 189 9 5
f 265 264 147
f 265 147 146
f 267 265 146
f 267 146 150
f 272 405 247
f 272 247 246
f 502 501 511
f 502 511 169
f 212 15 18
f 212 18 595
f 213 632 153
f 213 153 152
f 217 216 449
f 217 449 597
f 560 142 145
f 560 145 514
f 64 150 151
f 64 151 506
f 230 128 131
f 230 131 677
f 232 230 677
f 232 677 678
f 678 677 131
f 678 131 132
f 236 235 110
f 236 110 474
f 204 203 253
f 204 253 541
f 540 539 679
f 540 679 507
f 181 510 679
f 181 679 539
f 187 509 517
f 187 517 2
f 512 172 175
f 512 175 513
f 395 513 175
f 395 175 176
f 547 546 254
f 547 254 242
f 646 300 486
f 646 486 674
f 358 646 674
f 358 674 52
f 325 669 629
f 325 629 680
f 369 266 267
f 369 267 63
f 373 372 269
f 373 269 268
f 372 68 272
f 372 272 269
f 664 663 538
f 664 538 537
f 448 182 538
f 448 538 663
f 519 559 525
f 519 525 433
f 257 565 163
f 257 163 162
f 565 522 166
f 565 166 163
f 215 261 436
f 215 436 216
f 263 585 643
f 263 643 264
f 274 557 134
f 274 134 275
f 197 278 31
f 197 31 662
f 605 72 529
f 605 529 528
f 340 305 307
f 340 307 446
f 608 655 654
f 608 654 609
f 609 654 309
f 609 309 308
f 586 218 221
f 586 221 587
f 415 587 221
f 415 221 222
f 383 537 540
f 383 540 361
f 573 516 673
f 573 673 681
f 245 573 681
f 245 681 534
f 682 568 378
f 682 378 488
f 535 233 236
f 535 236 536
f 420 237 233
f 420 233 535
f 580 304 328
f 580 328 581
f 322 524 55
f 322 55 210
f 683 331 334
f 683 334 684
f 450 683 684
f 450 684 451
f 451 684 334
f 451 334 335
f 324 634 669
f 324 669 325
f 427 426 337
f 427 337 336
f 427 336 340
f 427 340 554
f 671 441 515
f 671 515 572
f 496 671 572
f 496 572 244
f 337 489 114
f 337 114 338
f 553 552 257
f 553 257 256
f 685 566 567
f 685 567 686
f 685 578 23
f 685 23 566
f 685 686 580
f 685 580 578
f 248 87 88
f 248 88 345
f 471 363 568
f 471 568 682
f 626 666 570
f 626 570 569
f 626 357 359
f 626 359 666
f 567 502 169
f 567 169 168
f 607 288 142
f 607 142 560
f 459 290 288
f 459 288 607
f 361 540 507
f 361 507 362
f 367 366 509
f 367 509 187
f 571 311 172
f 571 172 512
f 600 385 388
f 600 388 129
f 687 389 392
f 687 392 577
f 498 687 577
f 498 577 400
f 498 393 389
f 498 389 687
f 326 325 680
f 326 680 376
f 379 373 268
f 379 268 380
f 198 664 537
f 198 537 383
f 388 387 688
f 388 688 575
f 120 689 688
f 120 688 387
f 576 575 688
f 576 688 689
f 392 391 559
f 392 559 519
f 584 423 586
f 584 586 32
f 611 35 36
f 611 36 414
f 690 588 418
f 690 418 417
f 690 601 542
f 690 542 588
f 306 410 161
f 306 161 160
f 413 69 72
f 413 72 605
f 517 604 558
f 517 558 429
f 691 136 655
f 691 655 608
f 418 590 239
f 418 239 238
f 590 547 242
f 590 242 239
f 423 352 218
f 423 218 586
f 384 383 361
f 384 361 360
f 593 283 481
f 593 481 594
f 425 682 488
f 425 488 426
f 435 434 331
f 435 331 683
f 436 435 683
f 436 683 450
f 295 89 91
f 295 91 374
f 503 92 93
f 503 93 601
f 99 602 95
f 99 95 94
f 647 100 103
f 647 103 648
f 648 103 105
f 648 105 447
f 650 649 206
f 650 206 205
f 382 208 206
f 382 206 649
f 347 211 454
f 347 454 453
f 599 117 274
f 599 274 273
f 508 413 605
f 508 605 604
f 529 691 608
f 529 608 461
f 638 692 610
f 638 610 251
f 675 487 610
f 675 610 692
f 53 675 692
f 53 692 638
f 631 457 127
f 631 127 126
f 454 553 256
f 454 256 397
f 504 401 404
f 504 404 603
f 67 603 404
f 67 404 405
f 606 280 283
f 606 283 593
f 464 308 299
f 464 299 78
f 673 471 682
f 673 682 425
f 521 318 320
f 521 320 194
f 467 232 678
f 467 678 693
f 693 678 132
f 693 132 468
f 686 567 168
f 686 168 301
f 686 301 304
f 686 304 580
f 657 473 476
f 657 476 353
f 612 165 615
f 612 615 694
f 694 615 548
f 694 548 602
f 345 88 395
f 345 395 346
f 476 475 311
f 476 311 571
f 480 479 385
f 480 385 600
f 349 428 184
f 349 184 183
f 616 574 321
f 616 321 430
f 660 188 11
f 660 11 623
f 660 495 190
f 660 190 188
f 661 624 263
f 661 263 262
f 437 661 262
f 437 262 266
f 621 620 342
f 621 342 341
f 620 248 345
f 620 345 342
f 546 447 438
f 546 438 254
f 443 467 693
f 443 693 332
f 332 693 468
f 332 468 504
f 622 421 423
f 622 423 584
f 652 695 627
f 652 627 617
f 680 629 627
f 680 627 695
f 625 444 280
f 625 280 606
f 555 446 444
f 555 444 625
f 500 690 417
f 500 417 501
f 500 503 601
f 500 601 690
f 506 151 351
f 506 351 357
f 541 253 368
f 541 368 364
f 507 679 371
f 507 371 370
f 510 374 371
f 510 371 679
f 509 508 604
f 509 604 517
f 71 137 136
f 71 136 691
f 653 222 223
f 653 223 520
f 492 384 360
f 492 360 470
f 20 241 523
f 20 523 21
f 26 25 92
f 26 92 503
f 28 99 94
f 28 94 29
f 523 639 484
f 523 484 483
f 639 611 414
f 639 414 484
f 40 39 100
f 40 100 647
f 42 650 205
f 42 205 43
f 46 347 453
f 46 453 47
f 640 599 273
f 640 273 407
f 640 407 410
f 640 410 306
f 581 328 491
f 581 491 495
f 62 61 413
f 62 413 508
f 72 71 691
f 72 691 529
f 654 396 526
f 654 526 309
f 681 673 425
f 681 425 424
f 534 681 424
f 534 424 428
f 158 536 473
f 158 473 657
f 50 49 291
f 50 291 290
f 93 40 647
f 93 647 543
f 96 612 694
f 96 694 97
f 97 694 602
f 97 602 99
f 109 108 294
f 109 294 672
f 672 294 296
f 672 296 180
f 113 112 652
f 113 652 312
f 115 406 556
f 115 556 116
f 119 696 689
f 119 689 120
f 656 576 689
f 656 689 696
f 125 124 561
f 125 561 411
f 651 616 430
f 651 430 667
f 651 667 457
f 651 457 631
f 57 665 564
f 57 564 552
f 665 653 520
f 665 520 564
f 526 177 619
f 526 619 527
f 556 621 341
f 556 341 456
f 531 460 463
f 531 463 532
f 532 463 465
f 532 465 533
f 666 359 51
f 666 51 442
f 561 514 421
f 561 421 622
f 525 466 467
f 525 467 443
f 112 563 695
f 112 695 652
f 376 680 695
f 376 695 563
f 147 644 213
f 147 213 148
f 153 645 324
f 153 324 154
f 169 511 19
f 169 19 170
f 179 83 696
f 179 696 119
f 402 656 696
f 402 696 83
