# integer-coordinate closed triangle mesh
v 0 2 2
v 0 2 3
v 0 3 4
v 0 3 3
v 1 2 4
v 1 2 5
v 1 3 5
v 0 2 4
v 0 3 5
v 1 2 6
v 0 2 5
v 0 3 6
v 1 2 7
v 0 2 6
v 0 3 7
v 1 2 8
v 0 2 7
v 0 3 8
v 1 2 9
v 0 2 8
v 0 3 9
v 1 2 10
v 0 2 9
v 0 3 10
v 1 2 11
v 0 2 10
v 0 3 11
v 1 2 12
v 1 3 13
v 0 4 5
v 0 4 4
v 1 4 6
v 0 4 6
v 0 4 7
v 0 4 8
v 0 4 9
v 0 4 10
v 0 4 11
v 0 4 12
v 1 4 14
v 0 5 6
v 0 5 5
v 1 5 8
v 1 5 7
v 0 5 7
v 1 5 9
v 0 5 8
v 1 5 10
v 0 5 9
v 1 5 11
v 0 5 10
v 1 5 12
v 0 5 11
v 1 5 13
v 0 5 12
v 1 5 14
v 0 5 13
v 1 5 15
v 2 2 6
v 2 2 7
v 2 3 7
v 2 2 8
v 2 2 9
v 2 2 10
v 2 2 11
v 2 2 12
v 2 2 13
v 2 2 14
v 2 3 15
v 2 4 8
v 2 4 16
v 2 5 10
v 2 5 9
v 2 5 11
v 2 5 12
v 2 5 13
v 2 5 14
v 2 5 15
v 2 5 16
v 2 5 17
v 2 0 4
v 2 0 5
v 2 1 6
v 2 1 5
v 3 0 6
v 3 0 7
v 3 1 7
v 2 0 6
v 2 1 7
v 3 0 8
v 2 0 7
v 2 1 8
v 3 0 9
v 2 0 8
v 2 1 9
v 3 0 10
v 2 0 9
v 2 1 10
v 3 0 11
v 2 0 10
v 2 1 11
v 3 0 12
v 2 0 11
v 2 1 12
v 3 0 13
v 2 0 12
v 2 1 13
v 3 0 14
v 3 1 15
v 3 2 8
v 3 2 16
v 3 3 9
v 3 3 17
v 3 4 10
v 3 4 18
v 3 5 11
v 3 5 19
v 2 6 11
v 2 6 10
v 3 6 12
v 2 6 12
v 2 6 13
v 2 6 14
v 2 6 15
v 2 6 16
v 2 6 17
v 2 6 18
v 3 6 20
v 2 7 12
v 2 7 11
v 3 7 14
v 3 7 13
v 2 7 13
v 3 7 15
v 2 7 14
v 3 7 16
v 2 7 15
v 3 7 17
v 2 7 16
v 3 7 18
v 2 7 17
v 3 7 19
v 2 7 18
v 3 7 20
v 2 7 19
v 3 7 21
v 4 0 8
v 4 0 9
v 4 1 9
v 4 0 10
v 4 0 11
v 4 0 12
v 4 0 13
v 4 0 14
v 4 0 15
v 4 0 16
v 4 1 17
v 4 2 10
v 4 2 18
v 4 3 11
v 4 3 19
v 4 4 12
v 4 4 20
v 4 5 13
v 4 5 21
v 4 6 14
v 4 6 22
v 4 7 16
v 4 7 15
v 4 7 17
v 4 7 18
v 4 7 19
v 4 7 20
v 4 7 21
v 4 7 22
v 4 7 23
v 5 0 10
v 5 1 11
v 5 1 12
v 5 0 11
v 5 1 13
v 5 0 12
v 5 1 14
v 5 0 13
v 5 1 15
v 5 0 14
v 5 1 16
v 5 0 15
v 5 1 17
v 5 0 16
v 5 1 18
v 5 0 17
v 5 1 19
v 5 0 18
v 5 2 12
v 5 2 13
v 5 2 14
v 5 2 15
v 5 2 16
v 5 2 17
v 5 2 18
v 5 2 19
v 5 2 20
v 5 3 13
v 5 3 21
v 5 4 14
v 5 4 22
v 5 5 15
v 5 5 23
v 5 6 16
v 5 6 17
v 5 5 16
v 5 6 18
v 5 5 17
v 5 6 19
v 5 5 18
v 5 6 20
v 5 5 19
v 5 6 21
v 5 5 20
v 5 6 22
v 5 5 21
v 5 6 23
v 5 5 22
v 5 6 24
v 5 7 17
v 5 7 18
v 5 7 19
v 5 7 20
v 5 7 21
v 5 7 22
v 5 7 23
v 5 7 24
v 5 7 25
v 6 2 14
v 6 2 15
v 6 3 15
v 6 2 16
v 6 2 17
v 6 2 18
v 6 2 19
v 6 2 20
v 6 2 21
v 6 2 22
v 6 3 23
v 6 4 16
v 6 4 24
v 6 5 18
v 6 5 17
v 6 5 19
v 6 5 20
v 6 5 21
v 6 5 22
v 6 5 23
v 6 5 24
v 6 5 25
v 7 2 16
v 7 3 17
v 7 3 18
v 7 2 17
v 7 3 19
v 7 2 18
v 7 3 20
v 7 2 19
v 7 3 21
v 7 2 20
v 7 3 22
v 7 2 21
v 7 3 23
v 7 2 22
v 7 3 24
v 7 2 23
v 7 3 25
v 7 2 24
v 7 4 18
v 7 4 19
v 7 4 20
v 7 4 21
v 7 4 22
v 7 4 23
v 7 4 24
v 7 4 25
v 7 4 26
v 7 5 19
v 7 5 20
v 7 5 21
v 7 5 22
v 7 5 23
v 7 5 24
v 7 5 25
v 7 5 26
v 7 5 27
f 1 2 3
f 1 3 4
f 1 5 6
f 1 6 2
f 1 4 7
f 1 7 5
f 2 8 9
f 2 9 3
f 2 6 10
f 2 10 8
f 8 11 12
f 8 12 9
f 8 10 13
f 8 13 11
f 11 14 15
f 11 15 12
f 11 13 16
f 11 16 14
f 14 17 18
f 14 18 15
f 14 16 19
f 14 19 17
f 17 20 21
f 17 21 18
f 17 19 22
f 17 22 20
f 20 23 24
f 20 24 21
f 20 22 25
f 20 25 23
f 23 26 27
f 23 27 24
f 23 25 28
f 23 28 26
f 26 28 29
f 26 29 27
f 4 3 30
f 4 30 31
f 4 31 32
f 4 32 7
f 3 9 33
f 3 33 30
f 9 12 34
f 9 34 33
f 12 15 35
f 12 35 34
f 15 18 36
f 15 36 35
f 18 21 37
f 18 37 36
f 21 24 38
f 21 38 37
f 24 27 39
f 24 39 38
f 27 29 40
f 27 40 39
f 31 30 41
f 31 41 42
f 42 41 43
f 42 43 44
f 31 42 44
f 31 44 32
f 30 33 45
f 30 45 41
f 41 45 46
f 41 46 43
f 33 34 47
f 33 47 45
f 45 47 48
f 45 48 46
f 34 35 49
f 34 49 47
f 47 49 50
f 47 50 48
f 35 36 51
f 35 51 49
f 49 51 52
f 49 52 50
f 36 37 53
f 36 53 51
f 51 53 54
f 51 54 52
f 37 38 55
f 37 55 53
f 53 55 56
f 53 56 54
f 38 39 57
f 38 57 55
f 55 57 58
f 55 58 56
f 39 40 58
f 39 58 57
f 5 59 60
f 5 60 6
f 5 7 61
f 5 61 59
f 6 60 62
f 6 62 10
f 10 62 63
f 10 63 13
f 13 63 64
f 13 64 16
f 16 64 65
f 16 65 19
f 19 65 66
f 19 66 22
f 22 66 67
f 22 67 25
f 25 67 68
f 25 68 28
f 28 68 69
f 28 69 29
f 7 32 70
f 7 70 61
f 29 69 71
f 29 71 40
f 44 43 72
f 44 72 73
f 32 44 73
f 32 73 70
f 43 46 74
f 43 74 72
f 46 48 75
f 46 75 74
f 48 50 76
f 48 76 75
f 50 52 77
f 50 77 76
f 52 54 78
f 52 78 77
f 54 56 79
f 54 79 78
f 56 58 80
f 56 80 79
f 40 71 80
f 40 80 58
f 81 82 83
f 81 83 84
f 81 85 86
f 81 86 82
f 81 84 87
f 81 87 85
f 82 88 89
f 82 89 83
f 82 86 90
f 82 90 88
f 88 91 92
f 88 92 89
f 88 90 93
f 88 93 91
f 91 94 95
f 91 95 92
f 91 93 96
f 91 96 94
f 94 97 98
f 94 98 95
f 94 96 99
f 94 99 97
f 97 100 101
f 97 101 98
f 97 99 102
f 97 102 100
f 100 103 104
f 100 104 101
f 100 102 105
f 100 105 103
f 103 106 107
f 103 107 104
f 103 105 108
f 103 108 106
f 106 108 109
f 106 109 107
f 84 83 60
f 84 60 59
f 84 59 110
f 84 110 87
f 83 89 62
f 83 62 60
f 89 92 63
f 89 63 62
f 92 95 64
f 92 64 63
f 95 98 65
f 95 65 64
f 98 101 66
f 98 66 65
f 101 104 67
f 101 67 66
f 104 107 68
f 104 68 67
f 107 109 111
f 107 111 68
f 59 61 112
f 59 112 110
f 68 111 113
f 68 113 69
f 61 70 114
f 61 114 112
f 69 113 115
f 69 115 71
f 70 73 116
f 70 116 114
f 71 115 117
f 71 117 80
f 73 72 118
f 73 118 119
f 73 119 120
f 73 120 116
f 72 74 121
f 72 121 118
f 74 75 122
f 74 122 121
f 75 76 123
f 75 123 122
f 76 77 124
f 76 124 123
f 77 78 125
f 77 125 124
f 78 79 126
f 78 126 125
f 79 80 127
f 79 127 126
f 80 117 128
f 80 128 127
f 119 118 129
f 119 129 130
f 130 129 131
f 130 131 132
f 119 130 132
f 119 132 120
f 118 121 133
f 118 133 129
f 129 133 134
f 129 134 131
f 121 122 135
f 121 135 133
f 133 135 136
f 133 136 134
f 122 123 137
f 122 137 135
f 135 137 138
f 135 138 136
f 123 124 139
f 123 139 137
f 137 139 140
f 137 140 138
f 124 125 141
f 124 141 139
f 139 141 142
f 139 142 140
f 125 126 143
f 125 143 141
f 141 143 144
f 141 144 142
f 126 127 145
f 126 145 143
f 143 145 146
f 143 146 144
f 127 128 146
f 127 146 145
f 85 147 148
f 85 148 86
f 85 87 149
f 85 149 147
f 86 148 150
f 86 150 90
f 90 150 151
f 90 151 93
f 93 151 152
f 93 152 96
f 96 152 153
f 96 153 99
f 99 153 154
f 99 154 102
f 102 154 155
f 102 155 105
f 105 155 156
f 105 156 108
f 108 156 157
f 108 157 109
f 87 110 158
f 87 158 149
f 109 157 159
f 109 159 111
f 110 112 160
f 110 160 158
f 111 159 161
f 111 161 113
f 112 114 162
f 112 162 160
f 113 161 163
f 113 163 115
f 114 116 164
f 114 164 162
f 115 163 165
f 115 165 117
f 116 120 166
f 116 166 164
f 117 165 167
f 117 167 128
f 132 131 168
f 132 168 169
f 120 132 169
f 120 169 166
f 131 134 170
f 131 170 168
f 134 136 171
f 134 171 170
f 136 138 172
f 136 172 171
f 138 140 173
f 138 173 172
f 140 142 174
f 140 174 173
f 142 144 175
f 142 175 174
f 144 146 176
f 144 176 175
f 128 167 176
f 128 176 146
f 177 178 179
f 177 179 180
f 147 177 180
f 147 180 148
f 147 149 178
f 147 178 177
f 180 179 181
f 180 181 182
f 148 180 182
f 148 182 150
f 182 181 183
f 182 183 184
f 150 182 184
f 150 184 151
f 184 183 185
f 184 185 186
f 151 184 186
f 151 186 152
f 186 185 187
f 186 187 188
f 152 186 188
f 152 188 153
f 188 187 189
f 188 189 190
f 153 188 190
f 153 190 154
f 190 189 191
f 190 191 192
f 154 190 192
f 154 192 155
f 192 191 193
f 192 193 194
f 155 192 194
f 155 194 156
f 156 194 193
f 156 193 157
f 178 195 196
f 178 196 179
f 149 158 195
f 149 195 178
f 179 196 197
f 179 197 181
f 181 197 198
f 181 198 183
f 183 198 199
f 183 199 185
f 185 199 200
f 185 200 187
f 187 200 201
f 187 201 189
f 189 201 202
f 189 202 191
f 191 202 203
f 191 203 193
f 157 193 203
f 157 203 159
f 158 160 204
f 158 204 195
f 159 203 205
f 159 205 161
f 160 162 206
f 160 206 204
f 161 205 207
f 161 207 163
f 162 164 208
f 162 208 206
f 163 207 209
f 163 209 165
f 208 210 211
f 208 211 212
f 164 166 210
f 164 210 208
f 212 211 213
f 212 213 214
f 214 213 215
f 214 215 216
f 216 215 217
f 216 217 218
f 218 217 219
f 218 219 220
f 220 219 221
f 220 221 222
f 222 221 223
f 222 223 224
f 224 223 225
f 224 225 209
f 165 209 225
f 165 225 167
f 210 226 227
f 210 227 211
f 169 168 227
f 169 227 226
f 166 169 226
f 166 226 210
f 211 227 228
f 211 228 213
f 168 170 228
f 168 228 227
f 213 228 229
f 213 229 215
f 170 171 229
f 170 229 228
f 215 229 230
f 215 230 217
f 171 172 230
f 171 230 229
f 217 230 231
f 217 231 219
f 172 173 231
f 172 231 230
f 219 231 232
f 219 232 221
f 173 174 232
f 173 232 231
f 221 232 233
f 221 233 223
f 174 175 233
f 174 233 232
f 223 233 234
f 223 234 225
f 175 176 234
f 175 234 233
f 167 225 234
f 167 234 176
f 195 235 236
f 195 236 196
f 195 204 237
f 195 237 235
f 196 236 238
f 196 238 197
f 197 238 239
f 197 239 198
f 198 239 240
f 198 240 199
f 199 240 241
f 199 241 200
f 200 241 242
f 200 242 201
f 201 242 243
f 201 243 202
f 202 243 244
f 202 244 203
f 203 244 245
f 203 245 205
f 204 206 246
f 204 246 237
f 205 245 247
f 205 247 207
f 208 212 248
f 208 248 249
f 206 208 249
f 206 249 246
f 212 214 250
f 212 250 248
f 214 216 251
f 214 251 250
f 216 218 252
f 216 252 251
f 218 220 253
f 218 253 252
f 220 222 254
f 220 254 253
f 222 224 255
f 222 255 254
f 224 209 256
f 224 256 255
f 207 247 256
f 207 256 209
f 257 258 259
f 257 259 260
f 235 257 260
f 235 260 236
f 235 237 258
f 235 258 257
f 260 259 261
f 260 261 262
f 236 260 262
f 236 262 238
f 262 261 263
f 262 263 264
f 238 262 264
f 238 264 239
f 264 263 265
f 264 265 266
f 239 264 266
f 239 266 240
f 266 265 267
f 266 267 268
f 240 266 268
f 240 268 241
f 268 267 269
f 268 269 270
f 241 268 270
f 241 270 242
f 270 269 271
f 270 271 272
f 242 270 272
f 242 272 243
f 272 271 273
f 272 273 274
f 243 272 274
f 243 274 244
f 244 274 273
f 244 273 245
f 258 275 276
f 258 276 259
f 237 246 275
f 237 275 258
f 259 276 277
f 259 277 261
f 261 277 278
f 261 278 263
f 263 278 279
f 263 279 265
f 265 279 280
f 265 280 267
f 267 280 281
f 267 281 269
f 269 281 282
f 269 282 271
f 271 282 283
f 271 283 273
f 245 273 283
f 245 283 247
f 275 284 285
f 275 285 276
f 249 248 285
f 249 285 284
f 246 249 284
f 246 284 275
f 276 285 286
f 276 286 277
f 248 250 286
f 248 286 285
f 277 286 287
f 277 287 278
f 250 251 287
f 250 287 286
f 278 287 288
f 278 288 279
f 251 252 288
f 251 288 287
f 279 288 289
f 279 289 280
f 252 253 289
f 252 289 288
f 280 289 290
f 280 290 281
f 253 254 290
f 253 290 289
f 281 290 291
f 281 291 282
f 254 255 291
f 254 291 290
f 282 291 292
f 282 292 283
f 255 256 292
f 255 292 291
f 247 283 292
f 247 292 256
